<svg width="32" height="32" viewBox="0 0 32 32" fill="none" xmlns="http://www.w3.org/2000/svg">
<g clip-path="url(#clip0_1946_23957)">
<path d="M24 8C24 12.4187 20.4188 16 15.9438 16C11.5813 16 7.94375 12.4187 7.94375 8C7.94375 3.58187 11.5813 0 15.9438 0C20.4188 0 24 3.58187 24 8ZM19.9438 22.625C18.275 23.0688 16.9438 24.6375 16.9438 26.5V28C16.9438 28.2625 17.1063 28.5187 17.2938 28.7062L18.2938 29.7062C18.6813 30.1 19.3187 30.1 19.7062 29.7062C20.1 29.3187 20.1 28.6813 19.7062 28.2938L18.9438 27.5875V26.5C18.9438 25.3937 19.8938 24.5 20.9438 24.5C22.1063 24.5 23 25.3937 23 26.5V27.5875L22.2938 28.2938C21.9 28.6813 21.9 29.3187 22.2938 29.7062C22.6813 30.1 23.3187 30.1 23.7062 29.7062L24.7062 28.7062C24.8937 28.5187 25 28.2625 25 28V26.5C25 24.6375 23.725 23.0688 22 22.625V19.3C26.5938 20.4187 30 24.5063 30 29.5V30C30 31.1063 29.1063 32 28 32H4C2.89562 32 2 31.1063 2 30V29.5C2 24.5625 5.40812 20.4187 10 19.3V23.1437C8.55625 23.575 7.5 24.9125 7.5 26.5C7.5 28.4312 9.06875 30 11 30C12.9312 30 14.5 28.4312 14.5 26.5C14.5 24.9125 13.4438 23.575 12 23.1437V19.0125C12.1687 19.0063 12.3313 19 12.5 19H19.5C19.6688 19 19.8312 19.0063 20 19.0125L19.9438 22.625ZM12.4438 26.5C12.4438 27.3312 11.8313 28 10.9438 28C10.1688 28 9.44375 27.3312 9.44375 26.5C9.44375 25.6688 10.1688 25 10.9438 25C11.8313 25 12.4438 25.6688 12.4438 26.5Z" fill="#8D8D8D"/>
</g>
<defs>
<clipPath id="clip0_1946_23957">
<path d="M0 16C0 7.16344 7.16344 0 16 0C24.8366 0 32 7.16344 32 16C32 24.8366 24.8366 32 16 32C7.16344 32 0 24.8366 0 16Z" fill="white"/>
</clipPath>
</defs>
</svg>
