<svg width="32" height="32" viewBox="0 0 32 32" fill="none" xmlns="http://www.w3.org/2000/svg">
<g clip-path="url(#clip0_1946_23973)">
<path d="M23.3471 29.1187C23.3471 29.1187 14.2564 22.1156 18.8908 19.8281C21.5627 18.5063 23.3033 20.1969 23.3033 20.1969C23.3033 20.1969 25.0439 18.5063 27.7158 19.8281C32.3471 22.1187 23.3471 29.1187 23.3471 29.1187ZM18.0971 18.4906C15.4752 19.1562 15.4783 20.3906 15.4752 22.6187C15.4752 24.5812 18.3471 27.9219 19.7127 29.1187H2.91895C2.91895 24.2781 5.96895 19.9625 10.5346 18.35C7.95332 16.9813 6.1752 14.2938 6.1752 11.1625C6.1752 6.65313 9.81895 3 14.3158 3C18.8127 3 22.4564 6.65313 22.4564 11.1625C22.4564 14.2938 20.6783 16.9813 18.0971 18.35C18.3939 18.4531 17.8096 18.3625 18.0971 18.4906Z" fill="#8D8D8D"/>
</g>
<defs>
<clipPath id="clip0_1946_23973">
<path d="M0 16C0 7.16344 7.16344 0 16 0C24.8366 0 32 7.16344 32 16C32 24.8366 24.8366 32 16 32C7.16344 32 0 24.8366 0 16Z" fill="white"/>
</clipPath>
</defs>
</svg>
