<svg xmlns="http://www.w3.org/2000/svg" xmlns:xlink="http://www.w3.org/1999/xlink" viewBox="0 0 700.67 590.02"><defs><style>.cls-1{fill:url(#未命名的渐变_35);}.cls-2{fill:#ff7a00;}.cls-3{fill:url(#未命名的渐变_35-2);}.cls-4{fill:url(#未命名的渐变_35-3);}.cls-5{fill:none;}.cls-6{fill:url(#未命名的渐变_2);}.cls-7{fill:url(#未命名的渐变_35-4);}.cls-8{fill:url(#未命名的渐变_35-5);}.cls-9{fill:url(#未命名的渐变_35-6);}</style><linearGradient id="未命名的渐变_35" x1="655.94" y1="225.71" x2="612.49" y2="557.05" gradientUnits="userSpaceOnUse"><stop offset="0" stop-color="#2760c4"/><stop offset="1" stop-color="#023090"/></linearGradient><linearGradient id="未命名的渐变_35-2" x1="508.26" y1="575.34" x2="453.94" y2="33.97" xlink:href="#未命名的渐变_35"/><linearGradient id="未命名的渐变_35-3" x1="480.21" y1="578.15" x2="425.89" y2="36.78" xlink:href="#未命名的渐变_35"/><linearGradient id="未命名的渐变_2" x1="112.18" y1="332.81" x2="77.46" y2="561.82" gradientUnits="userSpaceOnUse"><stop offset="0" stop-color="#0075ba"/><stop offset="1" stop-color="#004992"/></linearGradient><linearGradient id="未命名的渐变_35-4" x1="456.83" y1="-5.49" x2="158.08" y2="492.43" xlink:href="#未命名的渐变_35"/><linearGradient id="未命名的渐变_35-5" x1="448.07" y1="-10.75" x2="149.32" y2="487.17" xlink:href="#未命名的渐变_35"/><linearGradient id="未命名的渐变_35-6" x1="52.74" y1="221.47" x2="141.46" y2="619.81" xlink:href="#未命名的渐变_35"/></defs><g id="图层_2" data-name="图层 2"><g id="图层_1-2" data-name="图层 1"><polygon class="cls-1" points="700.67 149.14 700.67 590.02 565.78 590.02 565.78 207.89 700.67 149.14"/><polygon class="cls-2" points="698.67 0.28 698.67 115.21 569.77 171.39 565.78 173.1 565.78 61.59 698.67 0.28"/><polygon class="cls-3" points="532.13 0 532.13 187.65 393.82 248.1 393.82 0 532.13 0"/><polygon class="cls-4" points="393.82 282.89 532.13 222.72 532.13 590.02 393.82 590.02 393.82 282.89"/><path class="cls-5" d="M171.1,422.63l47.06-63.31h.28"/><path class="cls-5" d="M139.16,465.4a.28.28,0,0,1-.28.29C118.06,493.92,97,521.87,76.14,550.1"/><polygon class="cls-6" points="139.16 349.33 139.16 581.47 138.31 582.6 132.89 590.02 130.04 590.02 76.43 550.1 76.14 550.1 69.3 544.97 20.82 508.75 69.3 443.73 138.31 350.76 138.88 349.91 139.16 349.33"/><polygon class="cls-7" points="318.82 315.4 171.1 534.13 171.1 379.85 218.16 359.32 218.44 359.32 318.82 315.4"/><polygon class="cls-8" points="532.13 0 393.82 204.47 352.19 266.07 171.1 345.06 171.1 300 365.02 0 532.13 0"/><polygon class="cls-9" points="139.16 581.47 139.16 590.02 0 590.02 0 61.59 138.31 0.28 138.88 349.91 138.88 465.69 139.16 581.47"/></g></g></svg>